<svg width="61" height="60" viewBox="0 0 61 60" fill="none" xmlns="http://www.w3.org/2000/svg">
<rect x="1.63989" y="1" width="58" height="58" rx="29" fill="#FFE6D0"/>
<rect x="1.63989" y="1" width="58" height="58" rx="29" stroke="#FFE6D0" stroke-width="2"/>
<g clip-path="url(#clip0_4445_893)">
<path d="M29.8782 30.2285C30.4537 29.7376 30.9065 29.1452 31.2366 28.4512C31.5667 27.7572 31.7317 27.0124 31.7317 26.2168C31.7317 25.4551 31.5878 24.7526 31.3 24.1094C31.0123 23.4492 30.6272 22.8737 30.1448 22.3828C29.6624 21.8919 29.0911 21.5026 28.4309 21.2148C27.7708 20.9271 27.0683 20.7832 26.3235 20.7832C25.5618 20.7832 24.8593 20.9271 24.2161 21.2148C23.5559 21.5026 22.9804 21.8919 22.4895 22.3828C21.9986 22.8737 21.6093 23.4492 21.3215 24.1094C21.0338 24.7526 20.8899 25.4551 20.8899 26.2168C20.8899 27.0124 21.0549 27.7572 21.385 28.4512C21.7151 29.1452 22.1679 29.7376 22.7434 30.2285C21.9817 30.584 21.2877 31.0326 20.6614 31.5742C20.0351 32.1159 19.5019 32.7253 19.0618 33.4023C18.6217 34.0794 18.2747 34.8158 18.0208 35.6113C17.7668 36.4069 17.6399 37.2448 17.6399 38.125C17.6399 38.4297 17.7457 38.6878 17.9573 38.8994C18.1689 39.111 18.427 39.2168 18.7317 39.2168C19.0364 39.2168 19.2945 39.111 19.5061 38.8994C19.7177 38.6878 19.8235 38.4297 19.8235 38.125C19.8235 37.2279 19.9928 36.3815 20.3313 35.5859C20.6698 34.8073 21.1311 34.1217 21.7151 33.5293C22.2991 32.9368 22.9889 32.4714 23.7844 32.1328C24.58 31.7943 25.4264 31.625 26.3235 31.625C27.2206 31.625 28.0585 31.7943 28.8372 32.1328C29.6327 32.4714 30.3225 32.9368 30.9065 33.5293C31.4905 34.1217 31.9602 34.8073 32.3157 35.5859C32.6542 36.3815 32.8235 37.2279 32.8235 38.125C32.8235 38.4297 32.9293 38.6878 33.1409 38.8994C33.3525 39.111 33.6021 39.2168 33.8899 39.2168C34.1946 39.2168 34.4527 39.111 34.6643 38.8994C34.8759 38.6878 34.9817 38.4297 34.9817 38.125C34.9817 37.2448 34.8547 36.4069 34.6008 35.6113C34.3639 34.8158 34.0211 34.0794 33.5725 33.4023C33.1239 32.7253 32.595 32.1159 31.9856 31.5742C31.3593 31.0495 30.6822 30.6094 29.9543 30.2539L29.8782 30.2285ZM26.3235 29.4668C25.4264 29.4668 24.6604 29.1494 24.0256 28.5146C23.3909 27.8799 23.0735 27.1139 23.0735 26.2168C23.0735 25.3197 23.3909 24.5537 24.0256 23.9189C24.6604 23.2842 25.4264 22.9668 26.3235 22.9668C27.2206 22.9668 27.9866 23.2842 28.6213 23.9189C29.2561 24.5537 29.5735 25.3197 29.5735 26.2168C29.5735 27.1139 29.2561 27.8799 28.6213 28.5146C27.9866 29.1494 27.2206 29.4668 26.3235 29.4668ZM38.9934 26.9023C38.8918 26.8008 38.7776 26.7204 38.6506 26.6611C38.5237 26.6019 38.384 26.5723 38.2317 26.5723C38.0793 26.5723 37.9397 26.6019 37.8127 26.6611C37.6858 26.7204 37.5715 26.8008 37.47 26.9023L35.2864 29.0605L34.6262 28.375C34.5247 28.2734 34.4104 28.193 34.2834 28.1338C34.1565 28.0745 34.0168 28.0449 33.8645 28.0449C33.7122 28.0449 33.5683 28.0745 33.4329 28.1338C33.2974 28.193 33.179 28.2734 33.0774 28.375C32.9928 28.4766 32.9208 28.5908 32.8616 28.7178C32.8023 28.8447 32.7727 28.9844 32.7727 29.1367C32.7727 29.2891 32.8023 29.4287 32.8616 29.5557C32.9208 29.6826 32.9928 29.7969 33.0774 29.8984L34.55 31.3457C34.6347 31.4473 34.7447 31.5277 34.8801 31.5869C35.0155 31.6462 35.1594 31.6758 35.3118 31.6758C35.4472 31.6758 35.5826 31.6462 35.718 31.5869C35.8534 31.5277 35.9719 31.4473 36.0735 31.3457L38.968 28.4512C39.0696 28.3665 39.1542 28.2523 39.2219 28.1084C39.2896 27.9645 39.3235 27.8164 39.3235 27.6641C39.3235 27.5117 39.2939 27.3678 39.2346 27.2324C39.1754 27.097 39.095 26.987 38.9934 26.9023Z" fill="#B88E2F"/>
</g>
<defs>
<clipPath id="clip0_4445_893">
<rect width="26" height="26" fill="white" transform="matrix(1 0 0 -1 17.6399 43)"/>
</clipPath>
</defs>
</svg>
