<svg width="61" height="60" viewBox="0 0 61 60" fill="none" xmlns="http://www.w3.org/2000/svg">
<rect x="1.52002" y="1" width="58" height="58" rx="29" fill="#FFE6D0"/>
<rect x="1.52002" y="1" width="58" height="58" rx="29" stroke="#FFE6D0" stroke-width="2"/>
<g clip-path="url(#clip0_4445_899)">
<path d="M38.1118 21.3418H34.8618V20.25C34.8618 19.9453 34.756 19.6872 34.5444 19.4756C34.3328 19.264 34.0747 19.1582 33.77 19.1582H22.9536C22.6489 19.1582 22.3908 19.264 22.1792 19.4756C21.9676 19.6872 21.8618 19.9453 21.8618 20.25V21.3418H18.6118C18.3071 21.3418 18.049 21.4476 17.8374 21.6592C17.6258 21.8708 17.52 22.1204 17.52 22.4082V25.6582C17.52 26.86 17.9432 27.8841 18.7896 28.7305C19.6359 29.5768 20.66 30 21.8618 30H23.5376C24.0116 30.5247 24.5659 30.9691 25.2007 31.333C25.8354 31.6969 26.5168 31.9382 27.2446 32.0566H27.27V34.3418H26.2036C25.3065 34.3418 24.5405 34.6592 23.9058 35.2939C23.271 35.9287 22.9536 36.6947 22.9536 37.5918V39.75C22.9536 40.0547 23.0594 40.3128 23.271 40.5244C23.4826 40.736 23.7323 40.8418 24.02 40.8418H32.7036C32.9914 40.8418 33.241 40.736 33.4526 40.5244C33.6642 40.3128 33.77 40.0547 33.77 39.75V37.5918C33.77 36.6947 33.4526 35.9287 32.8179 35.2939C32.1831 34.6592 31.4172 34.3418 30.52 34.3418H29.4536V32.0566C30.1984 31.9382 30.8882 31.6969 31.5229 31.333C32.1577 30.9691 32.7121 30.5247 33.186 30H34.8618C36.0636 30 37.0877 29.5768 37.9341 28.7305C38.7804 27.8841 39.2036 26.86 39.2036 25.6582V22.4082C39.2036 22.1204 39.0978 21.8708 38.8862 21.6592C38.6746 21.4476 38.4165 21.3418 38.1118 21.3418ZM21.8618 27.8418C21.2694 27.8418 20.7616 27.6302 20.3384 27.207C19.9152 26.7839 19.7036 26.2676 19.7036 25.6582V23.5H21.8618V25.6582C21.8618 26.0475 21.8957 26.4284 21.9634 26.8008C22.0311 27.1732 22.1326 27.5286 22.2681 27.8672L22.2427 27.8418H21.8618ZM30.52 36.5C30.8247 36.5 31.0828 36.6058 31.2944 36.8174C31.506 37.029 31.6118 37.2871 31.6118 37.5918V38.6582H25.1118V37.5918C25.1118 37.2871 25.2176 37.029 25.4292 36.8174C25.6408 36.6058 25.8989 36.5 26.2036 36.5H30.52ZM32.7036 25.6582C32.7036 26.86 32.2804 27.8841 31.4341 28.7305C30.5877 29.5768 29.5636 30 28.3618 30C27.16 30 26.1359 29.5768 25.2896 28.7305C24.4432 27.8841 24.02 26.86 24.02 25.6582V21.3418H32.7036V25.6582ZM37.02 25.6582C37.02 26.2676 36.8084 26.7839 36.3853 27.207C35.9621 27.6302 35.4543 27.8418 34.8618 27.8418H34.481C34.5994 27.5202 34.6925 27.1732 34.7603 26.8008C34.828 26.4284 34.8618 26.0475 34.8618 25.6582V23.5H37.02V25.6582Z" fill="#B88E2F"/>
</g>
<defs>
<clipPath id="clip0_4445_899">
<rect width="26" height="26" fill="white" transform="matrix(1 0 0 -1 17.52 43)"/>
</clipPath>
</defs>
</svg>
