<svg width="61" height="60" viewBox="0 0 61 60" fill="none" xmlns="http://www.w3.org/2000/svg">
<rect x="1.77002" y="1" width="58" height="58" rx="29" fill="#FFE6D0"/>
<rect x="1.77002" y="1" width="58" height="58" rx="29" stroke="#FFE6D0" stroke-width="2"/>
<g clip-path="url(#clip0_4445_887)">
<path d="M26.7583 29.6953C26.8599 29.7799 26.9741 29.8519 27.1011 29.9111C27.228 29.9704 27.3677 30 27.52 30C27.6724 30 27.8162 29.9704 27.9517 29.9111C28.0871 29.8519 28.2056 29.7799 28.3071 29.6953L32.6235 25.3535C32.7251 25.252 32.8055 25.1377 32.8647 25.0107C32.924 24.8838 32.9536 24.7441 32.9536 24.5918C32.9536 24.2871 32.8478 24.029 32.6362 23.8174C32.4246 23.6058 32.1665 23.5 31.8618 23.5C31.7095 23.5 31.5698 23.5296 31.4429 23.5889C31.3159 23.6481 31.2017 23.7201 31.1001 23.8047L27.52 27.3848L26.1235 25.9883C26.022 25.8867 25.9077 25.8063 25.7808 25.7471C25.6538 25.6878 25.5142 25.6582 25.3618 25.6582C25.0571 25.6582 24.799 25.764 24.5874 25.9756C24.3758 26.1872 24.27 26.4453 24.27 26.75C24.27 26.9023 24.2996 27.042 24.3589 27.1689C24.4181 27.2959 24.4985 27.4102 24.6001 27.5117L26.7583 29.6953ZM38.3618 32.1582H37.27V21.3418H38.3618C38.6665 21.3418 38.9246 21.236 39.1362 21.0244C39.3478 20.8128 39.4536 20.5547 39.4536 20.25C39.4536 19.9453 39.3478 19.6872 39.1362 19.4756C38.9246 19.264 38.6665 19.1582 38.3618 19.1582H18.8618C18.5571 19.1582 18.299 19.264 18.0874 19.4756C17.8758 19.6872 17.77 19.9453 17.77 20.25C17.77 20.5547 17.8758 20.8128 18.0874 21.0244C18.299 21.236 18.5571 21.3418 18.8618 21.3418H19.9536V32.1582H18.8618C18.5571 32.1582 18.299 32.264 18.0874 32.4756C17.8758 32.6872 17.77 32.9453 17.77 33.25C17.77 33.5547 17.8758 33.8128 18.0874 34.0244C18.299 34.236 18.5571 34.3418 18.8618 34.3418H27.52V35.5859L22.5942 38.8359C22.4419 38.9206 22.3192 39.0475 22.2261 39.2168C22.133 39.3861 22.0864 39.5638 22.0864 39.75C22.0864 40.0547 22.1922 40.3128 22.4038 40.5244C22.6154 40.736 22.8735 40.8418 23.1782 40.8418C23.1782 40.8418 23.1867 40.8418 23.2036 40.8418C23.3221 40.8418 23.4279 40.8249 23.521 40.791C23.6141 40.7572 23.703 40.7064 23.7876 40.6387L27.52 38.1758V39.75C27.52 40.0547 27.6258 40.3128 27.8374 40.5244C28.049 40.736 28.3071 40.8418 28.6118 40.8418C28.9165 40.8418 29.1746 40.736 29.3862 40.5244C29.5978 40.3128 29.7036 40.0547 29.7036 39.75V38.1758L33.436 40.6387C33.5207 40.7064 33.6095 40.7572 33.7026 40.791C33.7957 40.8249 33.9015 40.8418 34.02 40.8418C34.3247 40.8418 34.5828 40.736 34.7944 40.5244C35.006 40.3128 35.1118 40.0547 35.1118 39.75C35.1118 39.5638 35.0653 39.3903 34.9722 39.2295C34.8791 39.0687 34.7648 38.946 34.6294 38.8613L29.7036 35.6113V34.3418H38.3618C38.6665 34.3418 38.9246 34.236 39.1362 34.0244C39.3478 33.8128 39.4536 33.5547 39.4536 33.25C39.4536 32.9453 39.3478 32.6872 39.1362 32.4756C38.9246 32.264 38.6665 32.1582 38.3618 32.1582ZM35.1118 32.1582H22.1118V21.3418H35.1118V32.1582Z" fill="#B88E2F"/>
</g>
<defs>
<clipPath id="clip0_4445_887">
<rect width="26" height="26" fill="white" transform="matrix(1 0 0 -1 17.77 43)"/>
</clipPath>
</defs>
</svg>
